<?xml version="1.0" encoding="UTF-8"?>
<svg id="Layer_1" data-name="Layer 1" xmlns="http://www.w3.org/2000/svg" viewBox="0 0 801.5 801.5">
  <defs>
    <style>
      .cls-1 {
        fill: #4e7339;
      }

      .cls-1, .cls-2 {
        stroke-width: 0px;
      }

      .cls-2 {
        fill: #fff;
      }
    </style>
  </defs>
  <rect class="cls-2" x="72.82" y="483.15" width="726.35" height="316.59"/>
  <g>
    <path class="cls-1" d="m721.55,801.49h79.7v-66.81c-13.29,23.6-38.44,52.93-79.7,66.81Z"/>
    <polygon class="cls-1" points="301.24 603.77 252.97 801.48 350.73 801.48 302.46 603.77 301.24 603.77"/>
    <path class="cls-1" d="m613.43,678.49c0,36.74,20.98,66.75,60.45,66.75,27.77,0,55.54-20.19,55.54-49.01l71.84,5.28v-38.36h-187.23l-.6,15.33Z"/>
    <path class="cls-1" d="m672.04,544.96c-40.09,0-55.54,29.39-58.61,64.91h111.05c-1.84-33.68-12.95-64.91-52.44-64.91Z"/>
    <path class="cls-1" d="m0,0v801.5h174.17l-96.28-309.21h96.88l49.97,190.5h1.22l47.5-190.5h83.31l45.03,191.09h1.25l52.44-191.09h71.55l-93.81,309.21h184.19c-62.84-19.93-101.51-75.9-101.51-149.35,0-91.88,54.94-165.99,152.42-165.99,43.81,0,88.87,19.59,114.77,55.14,7.69,10.53,13.52,21.89,18.14,33.68V200.38h.25V0H0Z"/>
  </g>
</svg>