<svg width="492" height="119" viewBox="0 0 492 119" fill="none" xmlns="http://www.w3.org/2000/svg">
<g clip-path="url(#clip0_127_349)">
<path fill-rule="evenodd" clip-rule="evenodd" d="M58.8133 1.41826C55.7718 0.517874 52.5768 0.0273219 49.3014 0H0.340332V52.2296L30.6614 28.0572L25.9605 22.3282L42.1803 19.6122L58.4 16.8949L52.6337 32.3505L46.8688 47.8059L41.2979 41.0189L11.368 64.881C4.01785 70.7402 0.341569 76.2295 0.341569 86.495C0.341569 96.8028 0.341569 104.78 0.341569 118.047H9.23965H19.2081H21.9638V107.984C21.9638 103.298 23.9028 99.2643 27.5592 96.3483L32.5113 92.4002L43.5871 83.5717L54.6619 74.7416L71.6821 61.1751C79.8501 54.0913 84.1069 43.7723 83.665 33.3376C83.5115 29.7064 82.7866 26.0614 81.4624 22.5332C80.9476 21.1646 80.3537 19.8444 79.688 18.574C77.7218 14.8321 75.122 11.5348 72.0533 8.79891C68.252 5.40974 63.7343 2.87625 58.8133 1.41826Z" fill="#17B451"/>
<path fill-rule="evenodd" clip-rule="evenodd" d="M45.4354 92.095L66.0157 112.75C69.525 116.272 73.7952 118.048 78.7585 118.048H85.4329H101.872L62.4767 78.5096L51.4021 87.3396L45.4354 92.095Z" fill="#17B451"/>
<path fill-rule="evenodd" clip-rule="evenodd" d="M177.693 83.6685L168.76 70.8904C174.031 68.8345 177.028 64.5005 177.028 58.6101C177.028 49.9989 170.702 44.7769 160.494 44.7769H144.514V83.6685H151.727V72.334H160.493C160.992 72.334 161.491 72.334 161.991 72.2789L169.925 83.6685H177.693ZM169.759 58.6101C169.759 63.4996 166.486 66.3897 160.161 66.3897H151.727V50.8881H160.16C166.486 50.8881 169.759 53.7219 169.759 58.6101Z" fill="#17B451"/>
<path fill-rule="evenodd" clip-rule="evenodd" d="M212.258 69.0012C212.258 59.7226 205.933 53.6666 197.279 53.6666C188.458 53.6666 181.967 59.9998 181.967 68.8343C181.967 77.6676 188.401 84.056 198.333 84.056C203.437 84.056 207.598 82.3903 210.262 79.223L206.544 74.9456C204.436 77.1132 201.828 78.1681 198.5 78.1681C193.34 78.1681 189.734 75.3897 188.902 71.0571H212.15C212.203 70.3885 212.258 69.5556 212.258 69.0012ZM197.277 59.2221C201.827 59.2221 205.102 62.166 205.654 66.4447H188.845C189.51 62.1109 192.784 59.2221 197.277 59.2221Z" fill="#17B451"/>
<path fill-rule="evenodd" clip-rule="evenodd" d="M239.444 53.9993L229.957 76.0023L220.746 53.9993H213.533L226.239 83.6689H233.397L246.102 53.9993H239.444Z" fill="#17B451"/>
<path fill-rule="evenodd" clip-rule="evenodd" d="M269.101 44.7769H253.122V83.6685H260.335V72.4458H269.101C279.309 72.4458 285.634 67.1674 285.634 58.6113C285.636 49.9989 279.311 44.7769 269.101 44.7769ZM268.768 66.3333H260.335V50.8881H268.768C275.093 50.8881 278.365 53.7219 278.365 58.6101C278.365 63.4996 275.093 66.3333 268.768 66.3333Z" fill="#17B451"/>
<path fill-rule="evenodd" clip-rule="evenodd" d="M303.222 53.6666C298.45 53.6666 293.846 54.8884 290.683 57.333L293.402 62.3881C295.621 60.5555 299.061 59.4442 302.389 59.4442C307.328 59.4442 309.768 61.8337 309.768 65.889V66.3331H302.113C293.125 66.3331 289.795 70.2228 289.795 75.1664C289.795 80.3345 294.068 84.056 300.836 84.056C305.277 84.056 308.493 82.6112 310.156 80.0558V83.6673H316.703V66.2768C316.705 57.7207 311.767 53.6666 303.222 53.6666ZM302.279 79.0009C298.73 79.0009 296.62 77.3904 296.62 74.8892C296.62 72.7216 297.897 70.9441 302.612 70.9441H309.77V74.3899C308.605 77.4443 305.664 79.0009 302.279 79.0009Z" fill="#17B451"/>
<path fill-rule="evenodd" clip-rule="evenodd" d="M332.184 58.3327V53.9989H325.583V83.6685H332.517V69.2797C332.517 63.2224 335.846 60.1114 341.117 60.1114C341.617 60.1114 342.114 60.1667 342.725 60.2783V53.6666C337.787 53.6666 334.18 55.2207 332.184 58.3327Z" fill="#17B451"/>
<path fill-rule="evenodd" clip-rule="evenodd" d="M365.584 77.1115C364.532 77.9458 363.143 78.3346 361.699 78.3346C359.037 78.3346 357.594 76.7779 357.594 73.8892V59.7776H365.529V54.2218H357.594V47.4434H350.659V54.2218H345.777V59.7776H350.659V74.0559C350.659 80.6125 354.377 84.0558 360.867 84.0558C363.365 84.0558 365.862 83.3897 367.525 82.0563L365.584 77.1115Z" fill="#17B451"/>
<path fill-rule="evenodd" clip-rule="evenodd" d="M390.051 53.6666C385.723 53.6666 382.117 55.1114 379.843 57.8335V53.9989H373.241V83.6685H380.176V68.6674C380.176 62.7231 383.504 59.7226 388.44 59.7226C392.881 59.7226 395.489 62.279 395.489 67.5574V83.6697H402.423V66.6692C402.423 57.7207 397.154 53.6666 390.051 53.6666Z" fill="#17B451"/>
<path fill-rule="evenodd" clip-rule="evenodd" d="M439.375 69.0012C439.375 59.7226 433.052 53.6666 424.395 53.6666C415.574 53.6666 409.084 59.9998 409.084 68.8343C409.084 77.6676 415.519 84.056 425.451 84.056C430.554 84.056 434.715 82.3903 437.379 79.223L433.661 74.9456C431.553 77.1132 428.946 78.1681 425.618 78.1681C420.456 78.1681 416.851 75.3897 416.019 71.0571H439.265C439.32 70.3885 439.375 69.5556 439.375 69.0012ZM424.395 59.2221C428.946 59.2221 432.219 62.166 432.774 66.4447H415.962C416.628 62.1109 419.901 59.2221 424.395 59.2221Z" fill="#17B451"/>
<path fill-rule="evenodd" clip-rule="evenodd" d="M452.637 58.3327V53.9989H446.033V83.6685H452.968V69.2797C452.968 63.2224 456.298 60.1114 461.567 60.1114C462.067 60.1114 462.567 60.1667 463.178 60.2783V53.6666C458.239 53.6666 454.633 55.2207 452.637 58.3327Z" fill="#17B451"/>
<path fill-rule="evenodd" clip-rule="evenodd" d="M478.324 84.0563C486.645 84.0563 491.75 80.4462 491.75 74.8894C491.75 63.2777 473.442 68.6015 473.442 62.6103C473.442 60.6662 475.44 59.2763 479.656 59.2763C482.487 59.2763 485.315 59.8319 488.146 61.4991L490.808 56.2207C488.146 54.6101 483.65 53.6656 479.711 53.6656C471.722 53.6656 466.672 57.332 466.672 62.9429C466.672 74.7766 484.98 69.4343 484.98 75.1115C484.98 77.1661 483.151 78.3891 478.766 78.3891C475.05 78.3891 471.056 77.1661 468.447 75.4438L465.783 80.7234C468.447 82.6114 473.385 84.0563 478.324 84.0563Z" fill="#17B451"/>
</g>
<defs>
<clipPath id="clip0_127_349">
<rect width="491.41" height="118.048" fill="white" transform="translate(0.340332)"/>
</clipPath>
</defs>
</svg>
