<svg width="242" height="58" viewBox="0 0 242 58" fill="none" xmlns="http://www.w3.org/2000/svg">
<path fill-rule="evenodd" clip-rule="evenodd" d="M28.7956 0.696824C27.2978 0.254444 25.7244 0.0134239 24.1114 0H0V25.6617L14.9319 13.7852L12.6169 10.9704L20.6045 9.63595L28.5921 8.30088L25.7524 15.8946L22.9134 23.4882L20.17 20.1536L5.43067 31.8776C1.81103 34.7564 0.000609031 37.4534 0.000609031 42.4971C0.000609031 47.5616 0.000609031 51.4808 0.000609031 57.9994H4.38256H9.29161H10.6487V53.0551C10.6487 50.7529 11.6036 48.771 13.4042 47.3383L15.8429 45.3985L21.2973 41.0608L26.7512 36.7224L35.133 30.0568C39.1554 26.5764 41.2517 21.5064 41.0341 16.3796C40.9585 14.5955 40.6015 12.8046 39.9494 11.0711C39.6959 10.3987 39.4034 9.75005 39.0756 9.12584C38.1073 7.28737 36.827 5.66734 35.3158 4.32312C33.4438 2.65794 31.219 1.41317 28.7956 0.696824Z" fill="white"/>
<path fill-rule="evenodd" clip-rule="evenodd" d="M22.2075 45.2485L32.3425 55.397C34.0707 57.1274 36.1736 58 38.6178 58H41.9047H50.0001L30.5997 38.5737L25.1459 42.9121L22.2075 45.2485Z" fill="white"/>
<path fill-rule="evenodd" clip-rule="evenodd" d="M87.339 41.1084L82.9401 34.8302C85.5359 33.8201 87.0114 31.6907 87.0114 28.7966C87.0114 24.5657 83.8963 22 78.8694 22H71V41.1084H74.5519V35.5395H78.8688C79.1143 35.5395 79.3604 35.5395 79.6066 35.5124L83.5138 41.1084H87.339ZM83.4318 28.7966C83.4318 31.1989 81.8199 32.6189 78.7053 32.6189H74.5519V25.0026H78.7047C81.8199 25.0026 83.4318 26.3949 83.4318 28.7966Z" fill="white"/>
<path fill-rule="evenodd" clip-rule="evenodd" d="M104.361 33.902C104.361 29.3432 101.246 26.3677 96.9843 26.3677C92.6403 26.3677 89.4437 29.4794 89.4437 33.82C89.4437 38.16 92.6126 41.2988 97.5037 41.2988C100.017 41.2988 102.066 40.4804 103.378 38.9242L101.547 36.8226C100.509 37.8876 99.2248 38.4059 97.5858 38.4059C95.0449 38.4059 93.2689 37.0408 92.8593 34.9121H104.308C104.334 34.5836 104.361 34.1744 104.361 33.902ZM96.9837 29.0973C99.2242 29.0973 100.837 30.5437 101.109 32.6459H92.831C93.1585 30.5166 94.771 29.0973 96.9837 29.0973Z" fill="white"/>
<path fill-rule="evenodd" clip-rule="evenodd" d="M117.749 26.5312L113.077 37.3418L108.541 26.5312H104.989L111.246 41.1086H114.771L121.028 26.5312H117.749Z" fill="white"/>
<path fill-rule="evenodd" clip-rule="evenodd" d="M132.354 22H124.485V41.1084H128.037V35.5944H132.354C137.381 35.5944 140.496 33.001 140.496 28.7972C140.497 24.5657 137.382 22 132.354 22ZM132.19 32.5912H128.037V25.0026H132.19C135.305 25.0026 136.916 26.3949 136.916 28.7966C136.916 31.1989 135.305 32.5912 132.19 32.5912Z" fill="white"/>
<path fill-rule="evenodd" clip-rule="evenodd" d="M149.157 26.3677C146.807 26.3677 144.54 26.968 142.982 28.1691L144.321 30.6528C145.414 29.7524 147.108 29.2064 148.747 29.2064C151.179 29.2064 152.381 30.3804 152.381 32.3729V32.5911H148.611C144.185 32.5911 142.545 34.5022 142.545 36.9311C142.545 39.4703 144.649 41.2988 147.982 41.2988C150.169 41.2988 151.753 40.5889 152.572 39.3334V41.1078H155.796V32.5634C155.797 28.3596 153.365 26.3677 149.157 26.3677ZM148.693 38.8151C146.945 38.8151 145.906 38.0238 145.906 36.7949C145.906 35.7299 146.535 34.8566 148.857 34.8566H152.382V36.5496C151.808 38.0503 150.36 38.8151 148.693 38.8151Z" fill="white"/>
<path fill-rule="evenodd" clip-rule="evenodd" d="M163.42 28.6603V26.531H160.169V41.1084H163.584V34.0388C163.584 31.0627 165.223 29.5342 167.819 29.5342C168.065 29.5342 168.31 29.5614 168.611 29.6162V26.3677C166.179 26.3677 164.403 27.1313 163.42 28.6603Z" fill="white"/>
<path fill-rule="evenodd" clip-rule="evenodd" d="M179.868 37.8868C179.35 38.2967 178.666 38.4877 177.955 38.4877C176.644 38.4877 175.933 37.7229 175.933 36.3036V29.3702H179.841V26.6405H175.933V23.3101H172.518V26.6405H170.114V29.3702H172.518V36.3855C172.518 39.6069 174.349 41.2987 177.545 41.2987C178.775 41.2987 180.005 40.9714 180.824 40.3163L179.868 37.8868Z" fill="white"/>
<path fill-rule="evenodd" clip-rule="evenodd" d="M191.917 26.3677C189.786 26.3677 188.01 27.0776 186.89 28.415V26.531H183.639V41.1084H187.054V33.738C187.054 30.8174 188.693 29.3432 191.124 29.3432C193.311 29.3432 194.595 30.5992 194.595 33.1926V41.109H198.01V32.7562C198.01 28.3596 195.415 26.3677 191.917 26.3677Z" fill="white"/>
<path fill-rule="evenodd" clip-rule="evenodd" d="M216.207 33.902C216.207 29.3432 213.093 26.3677 208.83 26.3677C204.486 26.3677 201.29 29.4794 201.29 33.82C201.29 38.16 204.459 41.2988 209.35 41.2988C211.863 41.2988 213.912 40.4804 215.224 38.9242L213.393 36.8226C212.355 37.8876 211.071 38.4059 209.432 38.4059C206.89 38.4059 205.115 37.0408 204.705 34.9121H216.153C216.18 34.5836 216.207 34.1744 216.207 33.902ZM208.83 29.0973C211.071 29.0973 212.683 30.5437 212.956 32.6459H204.677C205.005 30.5166 206.617 29.0973 208.83 29.0973Z" fill="white"/>
<path fill-rule="evenodd" clip-rule="evenodd" d="M222.738 28.6603V26.531H219.486V41.1084H222.901V34.0388C222.901 31.0627 224.541 29.5342 227.136 29.5342C227.382 29.5342 227.628 29.5614 227.929 29.6162V26.3677C225.497 26.3677 223.721 27.1313 222.738 28.6603Z" fill="white"/>
<path fill-rule="evenodd" clip-rule="evenodd" d="M235.388 41.2989C239.486 41.2989 242 39.5252 242 36.795C242 31.0899 232.984 33.7056 232.984 30.762C232.984 29.8068 233.968 29.1239 236.044 29.1239C237.438 29.1239 238.831 29.3969 240.225 30.216L241.536 27.6226C240.225 26.8313 238.011 26.3672 236.071 26.3672C232.137 26.3672 229.65 28.1686 229.65 30.9254C229.65 36.7396 238.666 34.1148 238.666 36.9041C238.666 37.9136 237.765 38.5145 235.606 38.5145C233.776 38.5145 231.809 37.9136 230.524 37.0674L229.212 39.6614C230.524 40.589 232.956 41.2989 235.388 41.2989Z" fill="white"/>
</svg>
