<svg width="74" height="86" viewBox="0 0 74 86" fill="none" xmlns="http://www.w3.org/2000/svg">
<path fill-rule="evenodd" clip-rule="evenodd" d="M35.6115 0C37.9938 0.0198724 40.3177 0.376672 42.5299 1.03156C46.1091 2.09202 49.3951 3.93474 52.1599 6.39982C54.3919 8.38977 56.2829 10.788 57.713 13.5096C58.1971 14.4337 58.6291 15.3939 59.0036 16.3893C59.9667 18.9556 60.4939 21.6068 60.6056 24.2479C60.927 31.8375 57.8308 39.3429 51.8899 44.4952L39.5104 54.3628L31.4552 60.7852L23.3993 67.2066L19.7974 70.0783C17.138 72.1992 15.7277 75.1331 15.7277 78.5413V85.8607H13.7233H6.47285H0.000899513V62.9115C0.000899513 55.445 2.67481 51.4524 8.02087 47.1907L29.7902 29.8348L33.8421 34.7713L38.0352 23.5299L42.2293 12.2884L30.432 14.2648L18.6346 16.2403L22.0538 20.4072L0 37.9888V0H35.6115ZM47.7685 82.0083L32.7995 66.9847L37.1394 63.526L45.1945 57.1035L73.848 85.8617H61.8914H57.0368C53.4269 85.8617 50.321 84.5699 47.7685 82.0083Z" fill="#17B451"/>
</svg>
