<svg width="58" height="58" viewBox="0 0 58 58" fill="none" xmlns="http://www.w3.org/2000/svg">
<path fill-rule="evenodd" clip-rule="evenodd" d="M28.7956 0.696824C27.2978 0.254444 25.7244 0.0134239 24.1114 0H0V25.6617L14.9319 13.7852L12.6169 10.9704L20.6045 9.63595L28.5921 8.30088L25.7524 15.8946L22.9134 23.4882L20.17 20.1536L5.43067 31.8776C1.81103 34.7564 0.000609031 37.4534 0.000609031 42.4971C0.000609031 47.5616 0.000609031 51.4808 0.000609031 57.9994H4.38256H9.29161H10.6487V53.0551C10.6487 50.7529 11.6036 48.771 13.4042 47.3383L15.8429 45.3985L21.2973 41.0608L26.7512 36.7224L35.133 30.0568C39.1554 26.5764 41.2517 21.5064 41.0341 16.3796C40.9585 14.5955 40.6015 12.8046 39.9494 11.0711C39.6959 10.3987 39.4034 9.75005 39.0756 9.12584C38.1073 7.28737 36.827 5.66734 35.3158 4.32312C33.4438 2.65794 31.219 1.41317 28.7956 0.696824Z" fill="white"/>
<path fill-rule="evenodd" clip-rule="evenodd" d="M22.2075 45.2485L32.3425 55.397C34.0707 57.1274 36.1736 58 38.6178 58H41.9047H50.0001L30.5997 38.5737L25.1459 42.9121L22.2075 45.2485Z" fill="white"/>
</svg>
