<?xml version="1.0" standalone="no"?>
<!DOCTYPE svg PUBLIC "-//W3C//DTD SVG 1.1//EN" "http://www.w3.org/Graphics/SVG/1.1/DTD/svg11.dtd">
<svg xmlns="http://www.w3.org/2000/svg" id="a" viewBox="0 0 353.03 37.62" width="353.0299987792969" height="37.619998931884766">
  <defs>
    <style>
      .cls-1 {
        fill: #fff;
      }
    </style>
  </defs>
  <g>
    <path class="cls-1" d="m77.52,36.41V2.64h10.44c3.52,0,6.2.78,8.04,2.35,1.83,1.57,2.75,3.87,2.75,6.9,0,1.72-.38,3.19-1.14,4.43s-1.79,2.14-3.11,2.71c1.51.43,2.68,1.3,3.5,2.61.82,1.31,1.23,2.92,1.23,4.84,0,3.28-.9,5.75-2.7,7.42-1.8,1.67-4.41,2.5-7.83,2.5h-11.18Zm6.82-19.64h3.55c2.67,0,4.01-1.38,4.01-4.15,0-1.53-.31-2.63-.93-3.29s-1.62-1-3.01-1h-3.62v8.44Zm0,4.96v9.02h4.36c1.22,0,2.15-.38,2.78-1.14s.95-1.83.95-3.22c0-3.03-1.1-4.58-3.29-4.66,0,0-4.8,0-4.8,0Z"/>
    <path class="cls-1" d="m121.52,24.07h-3.39v12.34h-6.82V2.64h10.88c3.42,0,6.06.88,7.92,2.66,1.86,1.77,2.79,4.29,2.79,7.55,0,4.48-1.63,7.62-4.89,9.42l5.91,13.82v.32h-7.33l-5.08-12.34h.01Zm-3.39-5.68h3.87c1.36,0,2.38-.45,3.06-1.36.68-.9,1.02-2.11,1.02-3.63,0-3.39-1.32-5.08-3.97-5.08h-3.99v10.06h.01Z"/>
    <path class="cls-1" d="m151.83,36.41h-6.82V2.64h6.82v33.77Z"/>
    <path class="cls-1" d="m164.69,36.41V2.64h8.93c3.94,0,7.08,1.25,9.43,3.76,2.34,2.5,3.54,5.94,3.58,10.3v5.47c0,4.44-1.17,7.92-3.51,10.45s-5.57,3.79-9.68,3.79h-8.75Zm6.82-28.08v22.42h2.04c2.27,0,3.87-.6,4.8-1.8.93-1.2,1.41-3.27,1.46-6.2v-5.87c0-3.15-.44-5.35-1.32-6.6-.88-1.24-2.38-1.9-4.5-1.96h-2.48Z"/>
    <path class="cls-1" d="m221.6,32.58c-1.31,1.42-2.93,2.49-4.84,3.21s-4,1.08-6.27,1.08c-3.88,0-6.9-1.2-9.04-3.61s-3.25-5.9-3.32-10.49v-6.08c0-4.65,1.02-8.24,3.05-10.75,2.03-2.51,5-3.77,8.89-3.77,3.66,0,6.43.9,8.29,2.71s2.94,4.65,3.23,8.51h-6.63c-.19-2.15-.63-3.61-1.35-4.39s-1.82-1.17-3.34-1.17c-1.84,0-3.18.67-4.01,2.02s-1.27,3.49-1.3,6.42v6.12c0,3.08.46,5.31,1.38,6.71s2.43,2.1,4.53,2.1c1.34,0,2.43-.27,3.27-.81l.6-.42v-6.19h-4.78v-5.15h11.62v13.94h.02Z"/>
    <path class="cls-1" d="m250.99,21.8h-10.62v8.95h12.57v5.66h-19.39V2.64h19.34v5.68h-12.52v7.98h10.62v5.5h0Z"/>
    <path class="cls-1" d="m275.12,24.07h-3.39v12.34h-6.82V2.64h10.88c3.42,0,6.06.88,7.92,2.66,1.86,1.77,2.79,4.29,2.79,7.55,0,4.48-1.63,7.62-4.89,9.42l5.91,13.82v.32h-7.33l-5.08-12.34h0Zm-3.39-5.68h3.87c1.36,0,2.38-.45,3.06-1.36.68-.9,1.02-2.11,1.02-3.63,0-3.39-1.32-5.08-3.97-5.08h-3.99v10.06h.01Z"/>
    <path class="cls-1" d="m315.75,21.8h-10.62v8.95h12.57v5.66h-19.39V2.64h19.34v5.68h-12.52v7.98h10.62v5.5Z"/>
    <path class="cls-1" d="m339.74,27.13l5.68-24.49h7.61l-9.74,33.76h-7.1l-9.67-33.76h7.56l5.66,24.49h0Z"/>
  </g>
  <polygon class="cls-1" points="59.92 37.62 35.41 37.62 29.81 23.38 29.81 23.49 37.57 33.6 52.79 33.6 37.23 7.76 19.61 36.53 0 36.53 20 2.09 25.94 15.75 25.83 15.63 20.33 9.54 6.99 32.5 17.35 32.5 37.26 0 59.92 37.62"/>
</svg>