<svg id="Layer_1" data-name="Layer 1" xmlns="http://www.w3.org/2000/svg" width="437.4" height="98.32" viewBox="0 0 437.4 98.32"><path d="M30.11,80.48A13.36,13.36,0,0,1,16.76,67.13h-5a18.31,18.31,0,1,0,36.62,0h-5A13.36,13.36,0,0,1,30.11,80.48Z" style="fill:#fff"/><path d="M82.71,31a17.59,17.59,0,0,0-9.12-2.29A18.3,18.3,0,0,0,64.4,31a16.61,16.61,0,0,0-6.31,6.33,15,15,0,0,0-1,2,8.61,8.61,0,0,0-10.31.19A18.3,18.3,0,1,0,48.42,47c0-.21,0-.41,0-.61h0a3.7,3.7,0,0,1,7.39,0h0c0,.12,0,.24,0,.36A18.74,18.74,0,0,0,58.07,56a16.49,16.49,0,0,0,6.27,6.35,18.23,18.23,0,0,0,9.22,2.29,21.94,21.94,0,0,0,7-1A16.34,16.34,0,0,0,85.69,61a12.85,12.85,0,0,0,3.23-3.75,10,10,0,0,0,1.31-4.15H84.67a5.7,5.7,0,0,1-.81,2.29,7.41,7.41,0,0,1-2,2.11A10.51,10.51,0,0,1,78.49,59a17.3,17.3,0,0,1-4.77.58A13.54,13.54,0,0,1,67.05,58a10.63,10.63,0,0,1-4.33-4.48,13.47,13.47,0,0,1-1.39-4.68H90.62a6.63,6.63,0,0,0,.1-1.14q0-.86,0-1.38a19.07,19.07,0,0,0-2.09-9A15.59,15.59,0,0,0,82.71,31Zm-52.6,29.3A13.35,13.35,0,1,1,43.46,47,13.37,13.37,0,0,1,30.11,60.32Zm37-25a13.06,13.06,0,0,1,6.5-1.57,11.7,11.7,0,0,1,6.15,1.5,9.77,9.77,0,0,1,3.75,4,12,12,0,0,1,1.22,4.59H61.4a12.79,12.79,0,0,1,1.37-4.1A10.93,10.93,0,0,1,67.15,35.34Z" style="fill:#fff"/><path d="M125,31a17.59,17.59,0,0,0-9.12-2.29A18.3,18.3,0,0,0,106.68,31a16.54,16.54,0,0,0-6.31,6.33,18.61,18.61,0,0,0-2.29,9.37A18.74,18.74,0,0,0,100.35,56a16.47,16.47,0,0,0,6.26,6.35,18.28,18.28,0,0,0,9.22,2.29,22,22,0,0,0,7-1A16.17,16.17,0,0,0,128,61a12.75,12.75,0,0,0,3.24-3.75,10.19,10.19,0,0,0,1.31-4.15H127a5.72,5.72,0,0,1-.82,2.29,7.5,7.5,0,0,1-2,2.11A10.51,10.51,0,0,1,120.77,59a17.3,17.3,0,0,1-4.77.58A13.51,13.51,0,0,1,109.33,58,10.72,10.72,0,0,1,105,53.52a13.68,13.68,0,0,1-1.38-4.68H132.9a7.88,7.88,0,0,0,.1-1.14q0-.86,0-1.38a19.19,19.19,0,0,0-2.09-9A15.65,15.65,0,0,0,125,31Zm-15.57,4.32a13.12,13.12,0,0,1,6.51-1.57,11.73,11.73,0,0,1,6.15,1.5,9.81,9.81,0,0,1,3.74,4,11.85,11.85,0,0,1,1.23,4.59H103.68a12.54,12.54,0,0,1,1.36-4.1A11.05,11.05,0,0,1,109.42,35.34Z" style="fill:#fff"/><polygon points="169.19 29.26 162 29.26 146.99 42.11 146.99 12.88 141.7 12.88 141.7 63.98 146.99 63.98 146.99 48.75 151.11 45.19 163.34 63.98 169.32 63.98 154.68 42.04 169.19 29.26" style="fill:#fff"/><rect x="175.8" y="12.87" width="5.49" height="51.11" style="fill:#fff"/><path d="M212.84,29.26l-9,28.68L194.6,29.26h-5.82l12,34.92-1.05,3.07a14.22,14.22,0,0,1-1.6,3.35A7.66,7.66,0,0,1,195.68,73a6.81,6.81,0,0,1-3.53.86,14.48,14.48,0,0,1-2-.13,5.41,5.41,0,0,1-1.4-.33V78.2a5.57,5.57,0,0,0,1.34.28,17.39,17.39,0,0,0,2.39.15,12.44,12.44,0,0,0,6.68-1.6,12.16,12.16,0,0,0,4.06-4.25,33.63,33.63,0,0,0,2.6-5.82l12.72-37.7Z" style="fill:#fff"/><path d="M226.05,64V29.26h10.14V64Zm21.68,0V44.82a23.28,23.28,0,0,0-.15-2.65,7.79,7.79,0,0,0-.65-2.43,4.06,4.06,0,0,0-1.55-1.8,5.23,5.23,0,0,0-2.85-.67,5.43,5.43,0,0,0-4.85,2.63,8.81,8.81,0,0,0-1.13,2.81,15,15,0,0,0-.36,3.32l-2.78-2.29a18.23,18.23,0,0,1,1.6-7.83,12.68,12.68,0,0,1,4.56-5.36,12.48,12.48,0,0,1,7-1.95,11,11,0,0,1,6.78,1.85,9.75,9.75,0,0,1,3.43,4.9,21.56,21.56,0,0,1,1,6.76V64Zm21.58,0V44.75a22.39,22.39,0,0,0-.16-2.76,7.61,7.61,0,0,0-.69-2.4,3.91,3.91,0,0,0-1.57-1.7,6.49,6.49,0,0,0-5.7.08,5.66,5.66,0,0,0-1.95,1.91,8.6,8.6,0,0,0-1.09,2.75,14.53,14.53,0,0,0-.35,3.2L255,43.58a17.9,17.9,0,0,1,1.59-7.72,12.75,12.75,0,0,1,4.51-5.31,12.35,12.35,0,0,1,7-1.95,11.17,11.17,0,0,1,6.72,1.8,9.8,9.8,0,0,1,3.53,4.79,19.81,19.81,0,0,1,1.07,6.69V64Z" style="fill:#fff"/><path d="M290.92,49.66V43h23l-1,1.7v-1a7.67,7.67,0,0,0-.88-3.58,7,7,0,0,0-2.73-2.82,9.17,9.17,0,0,0-4.73-1.09,9.64,9.64,0,0,0-4.95,1.22,8,8,0,0,0-3.17,3.52,12.69,12.69,0,0,0-1.1,5.52,13.86,13.86,0,0,0,1.07,5.71,7.87,7.87,0,0,0,3.17,3.65,10,10,0,0,0,5.25,1.27,14.25,14.25,0,0,0,3.49-.37,8.81,8.81,0,0,0,2.41-1,4.77,4.77,0,0,0,1.42-1.31,3.4,3.4,0,0,0,.59-1.4h10a9.79,9.79,0,0,1-1.5,4.3,13.52,13.52,0,0,1-3.63,3.79A18.43,18.43,0,0,1,312,63.78a26.52,26.52,0,0,1-7.57,1,20.84,20.84,0,0,1-10-2.3,16.59,16.59,0,0,1-6.64-6.38,18.5,18.5,0,0,1-2.35-9.4,18.28,18.28,0,0,1,2.4-9.46,16.7,16.7,0,0,1,6.71-6.35,21,21,0,0,1,9.95-2.27,20.53,20.53,0,0,1,10,2.31,16,16,0,0,1,6.5,6.44A19.54,19.54,0,0,1,323.29,47c0,.54,0,1.07,0,1.57a7.56,7.56,0,0,1-.1,1.11Z" style="fill:#fff"/><path d="M344.12,64.76a16,16,0,0,1-8-2.07,15.37,15.37,0,0,1-5.89-6.16A20.92,20.92,0,0,1,328,46.45a19.4,19.4,0,0,1,2.27-9.71,15.7,15.7,0,0,1,13.85-8.14,14.2,14.2,0,0,1,7.54,2.09,15.71,15.71,0,0,1,5.47,5.71,16.43,16.43,0,0,1,2.06,8.32v.62l-4.38.07V45a7.43,7.43,0,0,0-1.17-4.21A8,8,0,0,0,350.59,38a8.24,8.24,0,0,0-3.89-1,8.37,8.37,0,0,0-5.82,2.24q-2.44,2.23-2.45,7.14c0,3.27.82,5.68,2.47,7.21A8.4,8.4,0,0,0,350.66,55a7.8,7.8,0,0,0,4.15-7.14l4.38.23a17.72,17.72,0,0,1-2,8.45,16.18,16.18,0,0,1-5.42,6A13.67,13.67,0,0,1,344.12,64.76ZM354.81,64V12.87H365V64Z" style="fill:#fff"/><path d="M377.34,23.6a6.86,6.86,0,0,1-4.1-1.24,4,4,0,0,1-1.75-3.5,4.06,4.06,0,0,1,1.75-3.53,6.87,6.87,0,0,1,4.1-1.25,7,7,0,0,1,4.14,1.25,4.08,4.08,0,0,1,1.75,3.53,4,4,0,0,1-1.75,3.51A7,7,0,0,1,377.34,23.6Zm-5,40.38V29.26h10V64Z" style="fill:#fff"/><path d="M401.63,64.7a17.63,17.63,0,0,1-6.75-1.21,10.52,10.52,0,0,1-4.63-3.5,9.18,9.18,0,0,1-1.66-5.56,8.79,8.79,0,0,1,2-6A12.91,12.91,0,0,1,396,44.87a29.57,29.57,0,0,1,7.28-1.62q5.72-.55,7.89-1c1.45-.31,2.18-.84,2.18-1.61v-.06a3.41,3.41,0,0,0-1.85-3,10,10,0,0,0-5.15-1.11A9.45,9.45,0,0,0,401,37.68a4.3,4.3,0,0,0-1.85,3.84h-10a11,11,0,0,1,2.27-7.07,14.05,14.05,0,0,1,6.16-4.36,24.57,24.57,0,0,1,8.8-1.49A25.21,25.21,0,0,1,414.88,30a14.46,14.46,0,0,1,6.26,4.17,10.5,10.5,0,0,1,2.37,7.06v15c0,.89,0,1.75.08,2.57A10.06,10.06,0,0,0,424,61a6.93,6.93,0,0,0,.81,1.89,5.53,5.53,0,0,0,.82,1h-10a6.42,6.42,0,0,1-.71-.95,7.62,7.62,0,0,1-.8-1.67,13.56,13.56,0,0,1-.57-2.3,18,18,0,0,1-.18-2.73l2.09,1.44a9.05,9.05,0,0,1-3,3.71,15.16,15.16,0,0,1-4.83,2.39A21.3,21.3,0,0,1,401.63,64.7Zm2.72-7.59a11.58,11.58,0,0,0,4.46-.86,7.7,7.7,0,0,0,3.38-2.73,8.27,8.27,0,0,0,1.31-4.87v-3.5L416,47.6a30.82,30.82,0,0,1-5,1.29q-2.82.51-5.64.8a15.55,15.55,0,0,0-5,1.13,2.77,2.77,0,0,0-1.65,2.7,3,3,0,0,0,1.4,2.69A7.86,7.86,0,0,0,404.35,57.11Z" style="fill:#fff"/></svg>