<?xml version="1.0" encoding="utf-8"?>
<!-- Generator: Adobe Illustrator 26.0.3, SVG Export Plug-In . SVG Version: 6.00 Build 0)  -->
<svg version="1.1" id="Layer_1" xmlns="http://www.w3.org/2000/svg" xmlns:xlink="http://www.w3.org/1999/xlink" x="0px" y="0px"
	 viewBox="0 0 279.4 223.9" style="enable-background:new 0 0 279.4 223.9;" xml:space="preserve">
<style type="text/css">
	.st0{fill:url(#SVGID_1_);}
	.st1{fill:url(#SVGID_00000137122747983787017910000015359784878229915067_);}
</style>
<g>
	<linearGradient id="SVGID_1_" gradientUnits="userSpaceOnUse" x1="218.5585" y1="277.3845" x2="-16.6229" y2="80.5659">
		<stop  offset="0" style="stop-color:#FF5C3A"/>
		<stop  offset="1" style="stop-color:#FF9538"/>
	</linearGradient>
	<path class="st0" d="M74.1,184.6c-22.8,0-41.4-18.6-41.4-41.4H17.3c0,31.3,25.5,56.8,56.8,56.8s56.8-25.5,56.8-56.8h-15.4
		C115.5,166,96.9,184.6,74.1,184.6z"/>
	
		<linearGradient id="SVGID_00000010307040218330522960000000512403516495826574_" gradientUnits="userSpaceOnUse" x1="283.6015" y1="199.6636" x2="48.42" y2="2.8451">
		<stop  offset="0" style="stop-color:#FF5C3A"/>
		<stop  offset="1" style="stop-color:#FF9538"/>
	</linearGradient>
	<path style="fill:url(#SVGID_00000010307040218330522960000000512403516495826574_);" d="M237.2,31.3c-8-4.7-17.4-7.1-28.3-7.1
		c-10.7,0-20.2,2.4-28.5,7.1c-8.3,4.7-14.8,11.3-19.6,19.6c-1.1,2-2.1,4-2.9,6.1c-4.4-3.2-9.8-5-15.6-5c-6.2,0-11.8,2.1-16.4,5.6
		C117,37.8,97.1,23.9,74.1,23.9c-31.3,0-56.8,25.5-56.8,56.8c0,31.3,25.5,56.8,56.8,56.8s56.8-25.5,56.8-56.8c0-0.6,0-1.3,0-1.9h0
		c0-6.3,5.2-11.4,11.5-11.4c6.3,0,11.4,5.1,11.4,11.4h0c0,0.4,0,0.7,0,1.1c0,10.9,2.3,20.5,7,28.9c4.7,8.4,11.2,14.9,19.4,19.7
		c8.2,4.7,17.8,7.1,28.6,7.1c8.2,0,15.4-1,21.7-3.1c6.3-2.1,11.6-4.9,15.9-8.4c4.3-3.5,7.7-7.3,10-11.6c2.4-4.3,3.7-8.5,4.1-12.9
		h-17.2c-0.3,2.4-1.1,4.7-2.5,7.1c-1.4,2.4-3.5,4.5-6.2,6.5c-2.7,2-6.2,3.6-10.4,4.8c-4.2,1.2-9.1,1.8-14.8,1.8
		c-8,0-14.9-1.6-20.7-4.9c-5.8-3.2-10.3-7.9-13.4-13.9c-2.2-4.3-3.6-9.1-4.3-14.5h90.8c0.1-0.6,0.2-1.8,0.3-3.5
		c0.1-1.8,0.1-3.2,0.1-4.3c0-10.5-2.2-19.8-6.5-28C251.3,42.5,245.1,36,237.2,31.3z M74.1,122.1c-22.8,0-41.4-18.6-41.4-41.4
		c0-22.8,18.6-41.4,41.4-41.4s41.4,18.6,41.4,41.4C115.5,103.5,96.9,122.1,74.1,122.1z M188.9,44.6c5.8-3.2,12.5-4.9,20.2-4.9
		c7.6,0,13.9,1.6,19.1,4.7c5.1,3.1,9,7.2,11.6,12.4c2.2,4.4,3.5,9.1,3.8,14.2h-72.4c0.7-4.7,2.2-8.9,4.2-12.7
		C178.6,52.5,183.1,47.9,188.9,44.6z"/>
</g>
</svg>
