<?xml version="1.0" encoding="UTF-8"?>
<svg id="uuid-bd53f55b-b6ac-41ae-b061-c1d81a05a299" data-name="Layer 1" xmlns="http://www.w3.org/2000/svg" width="4.71in" height="1.17in" viewBox="0 0 339.18 84.44">
  <g>
    <path d="m296.97,78.72c-3.22,0-6.18.98-8.31,1.93,2.74.59,5.52.89,8.29.89l.02.3v-.3c2.76,0,5.54-.3,8.27-.89-2.12-.95-5.08-1.93-8.27-1.93h0Z" style="fill: #ffcf34;"/>
    <path d="m295.53,67.38l-9.66-7.75c-.6-.49-.84-1.3-.58-2.03.26-.73.95-1.22,1.73-1.22h8.5V2.93c-.69.02-1.33.06-1.95.11-.1,5.68-.73,23.58-4.65,34.08-2.87,7.68-8.26,13.6-12.2,17.93-2.19,2.4-4.26,4.68-4.52,5.89-.73,3.43,1.39,6.24,2.79,8.09h0c2.68,3.55,8.11,8.58,9.96,10.26,1.71-1,5.77-3.06,10.58-3.42v-8.5Z" style="fill: #ffcf34;"/>
    <path d="m321.72,60.95c-.26-1.21-2.33-3.48-4.52-5.89-3.94-4.32-9.33-10.25-12.2-17.93-3.92-10.5-4.55-28.4-4.65-34.08-.62-.05-1.26-.09-1.95-.11v53.44h8.54c.77,0,1.47.49,1.73,1.22.26.73.02,1.55-.58,2.03l-9.66,7.75v8.5c4.79.37,8.83,2.42,10.54,3.42,1.86-1.69,7.29-6.71,9.96-10.26,1.4-1.86,3.52-4.67,2.79-8.09Z" style="fill: #ffcf34;"/>
    <path d="m269.36,60.35c.42-1.98,2.43-4.18,5.21-7.24,3.78-4.15,8.96-9.83,11.63-16.99.08-.22.16-.45.24-.68-3.6,1.28-12.97,3.51-18.19-5.37-4.33,2.89-7.88,7.61-10.57,14.02.64,13.64,8.33,25.92,20.24,32.52-2.29-2.29-4.05-4.24-5.24-5.83-1.61-2.14-4.31-5.72-3.31-10.44Z" style="fill: #ffcf34;"/>
    <path d="m273.81,24.6c7.75-1.52,12.08,3.6,13.87,6.52,2.32-9.66,2.85-22.28,2.97-27.71-17.22,2.78-30.46,16.5-32.69,33.72,2.43-3.98,7.75-10.94,15.85-12.52Z" style="fill: #ffcf34;"/>
    <path d="m303.26,3.4c.12,5.44.65,18.09,2.98,27.75,1.56-2.56,5.08-6.83,11.15-6.83.86,0,1.78.09,2.75.28,8.07,1.58,13.37,8.49,15.8,12.45-2.26-17.18-15.49-30.87-32.68-33.65Z" style="fill: #ffcf34;"/>
    <path d="m325.7,30.07c-5.24,8.9-14.63,6.65-18.23,5.35.08.24.16.47.25.7,2.67,7.16,7.84,12.84,11.62,16.99,2.78,3.05,4.79,5.26,5.21,7.24,1,4.72-1.7,8.3-3.31,10.44-1.2,1.59-2.96,3.55-5.25,5.84,11.93-6.62,19.62-18.93,20.24-32.6-2.68-6.37-6.23-11.06-10.54-13.94Z" style="fill: #ffcf34;"/>
  </g>
  <g>
    <path d="m36.88,37.88c-.4,10.27-8.45,18.21-18.42,18.21C7.85,56.09,0,47.49,0,37.07s8.45-19.02,18.87-19.02c5.13,0,9.66,2.23,13.59,6.22l-3.92,4.86c-2.87-2.68-5.99-4.45-9.66-4.45-6.74,0-12.28,5.56-12.28,12.39s5.23,12.39,11.87,12.39c5.64,0,10.21-3.95,11.37-9.26h-13.94v-5.82h20.98v3.49Z" style="fill: #fff;"/>
    <path d="m65.2,18.05h6.43v23.9c0,8.25-5.63,14.25-14.47,14.25s-14.47-6-14.47-14.25v-23.9h6.43v23.09c0,5.36,2.68,8.95,8.04,8.95s8.04-3.59,8.04-8.95v-23.09Z" style="fill: #fff;"/>
    <path d="m84.54,33.26h15v6.11h-15v10.07h16.61v6.11h-23.04V18.05h22.72v6.11h-16.29v9.11Zm13.52-23.23l-12.09,5.27-2.2-3.3,11-7.06,3.3,5.09Z" style="fill: #fff;"/>
    <path d="m107.37,18.05h12.75c7.45,0,12.43,5.14,12.43,12s-4.98,12-12.43,12h-6.32v13.5h-6.43V18.05Zm18.65,12c0-3.54-2.3-5.89-6.7-5.89h-5.52v11.79h5.52c4.39,0,6.7-2.36,6.7-5.89Z" style="fill: #fff;"/>
    <path d="m144.35,17.96h6.54l14.57,37.51h-6.48l-3.43-8.89h-15.86l-3.43,8.89h-6.48l14.57-37.51Zm-2.36,22.72h11.25l-5.63-14.63-5.63,14.63Z" style="fill: #fff;"/>
    <path d="m169.84,17.96h12.32c7.45,0,12.43,4.82,12.43,11.68,0,5.63-3,9.91-8.36,11.25l9.38,14.57h-7.5l-8.89-14.14h-2.95v14.14h-6.43V17.96Zm18.22,11.68c0-3.7-2.57-5.57-6.7-5.57h-5.09v11.14h5.09c4.13,0,6.7-1.88,6.7-5.57Z" style="fill: #fff;"/>
    <path d="m231.72,36.71c0,10.82-7.61,18.75-18.54,18.75h-12.11V17.96h12.11c10.93,0,18.54,7.93,18.54,18.75Zm-6.54,0c0-6.86-4.61-12.65-11.89-12.65h-5.79v25.29h5.79c7.29,0,11.89-5.84,11.89-12.65Z" style="fill: #fff;"/>
  </g>
  <g>
    <path d="m88.97,67.7h-5.83l-.42,2.06h5.27l-.46,2.28h-5.27l-.43,2.09h6l-.46,2.3h-8.86l2.2-11.04h8.71l-.46,2.3Z" style="fill: #fff;"/>
    <path d="m94.23,67.92l.85,2.39,2-2.39h3.13l-3.56,4.16,1.98,4.36h-3.16l-.96-2.6-2.24,2.6h-3.15l3.79-4.36-1.84-4.16h3.15Z" style="fill: #fff;"/>
    <path d="m109.48,68.3c.5.31.89.75,1.17,1.31.28.56.42,1.21.42,1.94,0,.92-.2,1.77-.6,2.53s-.94,1.36-1.63,1.8c-.69.44-1.45.66-2.27.66-.63,0-1.17-.13-1.61-.39-.45-.26-.78-.63-1.02-1.13l-.9,4.46h-2.8l2.31-11.57h2.79l-.2,1.01c.36-.36.76-.63,1.21-.82.45-.19.92-.28,1.42-.28.64,0,1.21.16,1.72.47Zm-3.9,2.01c-.33.23-.59.53-.79.91-.19.38-.29.79-.29,1.24,0,.53.14.95.43,1.27s.67.48,1.16.48c.39,0,.75-.11,1.07-.33.33-.22.58-.52.78-.9.19-.38.29-.79.29-1.24,0-.55-.14-.98-.43-1.29-.28-.31-.67-.47-1.15-.47-.39,0-.75.11-1.08.34Z" style="fill: #fff;"/>
    <path d="m119.83,68.31c.62.31,1.1.76,1.44,1.33s.5,1.24.5,2.01c0,.36-.05.78-.16,1.28h-6.05c.05.48.24.86.55,1.12.31.26.74.39,1.28.39.7,0,1.35-.24,1.95-.71l1.4,1.53c-.94.86-2.1,1.29-3.46,1.29-.9,0-1.69-.16-2.36-.47-.67-.31-1.19-.77-1.56-1.35s-.55-1.27-.55-2.05c0-.91.21-1.74.62-2.47.41-.73.99-1.31,1.72-1.73.73-.42,1.56-.63,2.47-.63.84,0,1.57.16,2.2.47Zm-.7,2.82c0-.4-.12-.72-.36-.95-.24-.24-.57-.35-.98-.35-.44,0-.84.15-1.2.44-.36.29-.63.68-.82,1.17h3.34c.01-.06.02-.16.02-.3Z" style="fill: #fff;"/>
    <path d="m130.53,67.81l-.33,2.57c-.1-.01-.23-.02-.41-.02-.69,0-1.3.18-1.82.55s-.85.84-1,1.42l-.82,4.11h-2.8l1.7-8.52h2.8l-.27,1.32c.77-.96,1.75-1.43,2.94-1.43Z" style="fill: #fff;"/>
    <path d="m134.99,73.51c-.02.08-.03.19-.03.33,0,.18.04.3.12.37.08.07.2.1.37.09.31,0,.71-.11,1.18-.33l.3,2.08c-.33.17-.7.3-1.11.39-.42.09-.82.13-1.22.13-.77,0-1.38-.2-1.83-.59-.45-.39-.68-.93-.68-1.61,0-.22.02-.43.06-.63l.71-3.54h-1.17l.36-1.86h1.18l.47-2.36h2.79l-.47,2.36h2.2l-.36,1.86h-2.22l-.66,3.32Z" style="fill: #fff;"/>
    <path d="m140.6,76.11c-.76-.29-1.4-.69-1.93-1.19l1.17-1.67c.44.4.93.72,1.46.96s1.03.36,1.5.36c.29,0,.52-.06.69-.17.16-.11.24-.27.24-.46,0-.17-.1-.31-.3-.43-.2-.12-.51-.27-.94-.43-.5-.2-.92-.39-1.26-.57s-.62-.43-.87-.75c-.24-.32-.36-.71-.36-1.17,0-.54.14-1.03.42-1.45s.68-.75,1.19-.98c.51-.23,1.09-.35,1.76-.35.7,0,1.4.12,2.1.37.7.25,1.32.58,1.88,1.02l-1.23,1.67c-.48-.33-.96-.6-1.44-.8-.48-.2-.88-.3-1.22-.3-.23,0-.42.05-.58.17s-.24.25-.24.42.1.32.31.44c.21.13.52.27.95.44.51.21.94.41,1.28.59.34.18.63.44.88.76.25.32.37.72.37,1.19,0,.55-.15,1.03-.44,1.45s-.7.75-1.23.98c-.52.23-1.12.35-1.79.35-.82,0-1.61-.14-2.37-.43Z" style="fill: #fff;"/>
    <path d="m163.04,65.4h2.88l-2.2,11.04h-2.88l.85-4.23h-4.46l-.85,4.23h-2.88l2.2-11.04h2.88l-.9,4.5h4.46l.9-4.5Z" style="fill: #fff;"/>
    <path d="m168.28,75.78c-.53-.51-.79-1.18-.79-2.01,0-.32.03-.59.08-.82l1.01-5.04h2.8l-.93,4.63c-.03.14-.05.27-.05.41,0,.38.11.67.33.89.22.22.53.32.91.32.47,0,.9-.18,1.27-.54.37-.36.62-.82.73-1.39l.87-4.33h2.8l-1.68,8.52h-2.8l.22-1.13c-.68.83-1.56,1.24-2.64,1.24-.89,0-1.6-.25-2.12-.76Z" style="fill: #fff;"/>
    <path d="m187.5,68.3c.5.31.89.75,1.17,1.32.28.57.42,1.22.42,1.95,0,.92-.2,1.77-.59,2.53s-.93,1.36-1.62,1.8c-.69.44-1.45.66-2.28.66-.63,0-1.17-.13-1.61-.39-.45-.26-.79-.63-1.03-1.13l-.28,1.39h-2.79l2.31-11.68h2.8l-.83,4.19c.37-.36.77-.63,1.22-.83.45-.19.91-.29,1.39-.29.65,0,1.23.16,1.72.47Zm-3.9,2.02c-.34.23-.6.53-.8.91-.19.38-.29.79-.29,1.23,0,.54.14.96.43,1.28.29.32.67.48,1.16.48.39,0,.75-.11,1.08-.33.33-.22.59-.52.79-.9.19-.38.29-.79.29-1.24,0-.55-.14-.98-.42-1.29-.28-.31-.67-.47-1.15-.47-.39,0-.75.11-1.09.34Z" style="fill: #fff;"/>
    <path d="m198.66,65.53c.76.23,1.41.53,1.97.9l-1.34,2.3c-.54-.35-1.13-.63-1.77-.86-.65-.23-1.19-.34-1.65-.34-.37,0-.66.07-.88.2-.22.14-.34.34-.36.6-.01.34.14.59.45.77s.81.37,1.49.58c.68.21,1.25.42,1.69.62.45.21.83.51,1.15.91.32.4.48.93.48,1.58,0,.81-.21,1.5-.64,2.07-.42.57-1,1-1.73,1.29s-1.54.43-2.42.43-1.82-.16-2.69-.47c-.87-.32-1.61-.75-2.22-1.31l1.34-2.27c.5.49,1.12.9,1.85,1.22s1.39.48,1.98.48c.46,0,.82-.09,1.09-.26.26-.17.39-.43.39-.76,0-.23-.08-.42-.25-.58s-.38-.28-.63-.37c-.25-.09-.61-.21-1.09-.36-.68-.19-1.24-.38-1.68-.58-.44-.2-.82-.49-1.13-.88-.31-.39-.47-.9-.47-1.53,0-.76.2-1.41.6-1.98.4-.56.96-1,1.68-1.31.72-.31,1.55-.46,2.5-.46.79,0,1.56.11,2.31.34Z" style="fill: #fff;"/>
    <path d="m210.39,68.3c.5.31.89.75,1.17,1.31s.42,1.21.42,1.94c0,.92-.2,1.77-.6,2.53-.4.76-.94,1.36-1.63,1.8-.69.44-1.45.66-2.27.66-.63,0-1.17-.13-1.61-.39-.45-.26-.79-.63-1.02-1.13l-.9,4.46h-2.8l2.31-11.57h2.79l-.21,1.01c.36-.36.76-.63,1.21-.82.45-.19.92-.28,1.42-.28.64,0,1.21.16,1.72.47Zm-3.9,2.01c-.33.23-.59.53-.79.91-.19.38-.29.79-.29,1.24,0,.53.14.95.43,1.27.29.32.67.48,1.16.48.39,0,.75-.11,1.07-.33.33-.22.58-.52.78-.9.19-.38.29-.79.29-1.24,0-.55-.14-.98-.42-1.29-.28-.31-.67-.47-1.15-.47-.39,0-.75.11-1.08.34Z" style="fill: #fff;"/>
    <path d="m221.11,68.31c.64.33,1.13.78,1.48,1.37.35.59.52,1.28.52,2.06,0,.93-.22,1.76-.65,2.49-.44.72-1.04,1.29-1.82,1.69-.78.4-1.66.61-2.64.61-.86,0-1.61-.16-2.25-.49-.64-.33-1.13-.78-1.48-1.38-.35-.59-.52-1.28-.52-2.07,0-.93.22-1.76.65-2.49.44-.72,1.04-1.29,1.81-1.68.77-.4,1.66-.6,2.65-.6.86,0,1.61.16,2.25.49Zm-3.95,2.44c-.39.44-.58,1.01-.58,1.72,0,.56.15,1,.44,1.35s.69.51,1.18.51c.6,0,1.09-.22,1.48-.66.39-.44.58-1.01.58-1.72,0-.56-.15-1-.44-1.35-.29-.34-.69-.51-1.18-.51-.6,0-1.09.22-1.48.66Z" style="fill: #fff;"/>
    <path d="m228.48,73.51c-.02.08-.03.19-.03.33,0,.18.04.3.12.37.08.07.2.1.37.09.31,0,.71-.11,1.18-.33l.3,2.08c-.33.17-.7.3-1.11.39-.42.09-.82.13-1.22.13-.77,0-1.38-.2-1.83-.59-.45-.39-.68-.93-.68-1.61,0-.22.02-.43.06-.63l.71-3.54h-1.17l.36-1.86h1.18l.47-2.36h2.79l-.47,2.36h2.2l-.36,1.86h-2.22l-.66,3.32Z" style="fill: #fff;"/>
  </g>
</svg>