<?xml version="1.0" encoding="UTF-8"?> <svg xmlns="http://www.w3.org/2000/svg" id="a" viewBox="0 0 123.28 43.67"><defs><style>.b{fill:#37fe90;}</style></defs><path d="M21.81,43.67c12.04,0,21.81-9.77,21.81-21.83S33.85,0,21.81,0,0,9.77,0,21.83s9.76,21.83,21.81,21.83Z"></path><path class="b" d="M28.91,23.14l-7.1-12.15-7.15,13.62,7.12,8.82,5.14-6.27h-8.05l-1.7-2.12h14.31l-9.69,11.74-9.63-11.74L21.77,7l9.38,16.14h-2.25Z"></path><path d="M120.9,24.36v4.93h-5.39v-4.93h-2.11v11.64h2.11v-4.94h5.39v4.94h2.11v-11.64h-2.11Zm-18.58,0v1.77h3.6v9.87h2.09v-9.87h3.6v-1.77h-9.29Zm-3.21,0l-2.1,8.56h-.1l-2.25-8.56h-2.06l-2.24,8.55h-.11l-2.09-8.55h-2.27l3.28,11.64h2.08l2.34-8.16h.09l2.33,8.16h2.08l3.28-11.64h-2.26Zm-14.78,2.61c-.47-.9-1.11-1.58-1.91-2.06-.81-.47-1.72-.71-2.74-.71s-1.93,.24-2.74,.71c-.8,.48-1.43,1.16-1.9,2.06-.47,.89-.7,1.96-.7,3.21s.23,2.32,.7,3.22c.47,.89,1.1,1.57,1.9,2.05,.81,.47,1.72,.71,2.74,.71s1.93-.24,2.74-.71c.8-.47,1.44-1.16,1.91-2.05,.46-.89,.7-1.96,.7-3.22s-.24-2.32-.7-3.21Zm-1.83,5.45c-.28,.61-.66,1.07-1.14,1.38-.49,.31-1.04,.47-1.68,.47s-1.19-.16-1.67-.47c-.49-.31-.87-.77-1.14-1.38-.28-.61-.41-1.36-.41-2.24s.13-1.63,.41-2.23c.27-.61,.65-1.07,1.14-1.38,.48-.32,1.04-.47,1.67-.47s1.19,.15,1.68,.47c.48,.31,.86,.77,1.14,1.38,.27,.6,.41,1.35,.41,2.23s-.14,1.63-.41,2.24Zm-25.03-2.51v1.65h2.68c-.01,.54-.13,1-.35,1.4-.24,.42-.57,.74-1.01,.97-.43,.22-.94,.34-1.53,.34-.66,0-1.23-.16-1.72-.47-.49-.32-.88-.79-1.15-1.4-.28-.61-.42-1.35-.42-2.23s.14-1.61,.42-2.22c.28-.61,.66-1.07,1.15-1.38,.49-.32,1.05-.47,1.67-.47,.35,0,.67,.04,.97,.13,.29,.09,.55,.22,.78,.39,.23,.18,.43,.39,.59,.64,.17,.24,.3,.51,.39,.82h2.15c-.09-.57-.27-1.1-.55-1.57-.28-.47-.64-.88-1.07-1.23-.44-.34-.93-.61-1.49-.79-.55-.19-1.15-.29-1.8-.29-.76,0-1.46,.14-2.11,.41-.65,.27-1.21,.67-1.69,1.19-.49,.51-.86,1.14-1.13,1.88-.27,.73-.4,1.57-.4,2.51,0,1.23,.23,2.29,.68,3.19,.45,.89,1.08,1.57,1.89,2.06,.81,.48,1.75,.72,2.82,.72,.97,0,1.82-.2,2.56-.59,.74-.39,1.33-.95,1.75-1.68,.43-.73,.64-1.59,.64-2.58v-1.4h-4.72ZM113.99,7.36v1.77h3.6v9.87h2.09V9.13h3.6v-1.77h-9.29Zm-5.32,0v7.94h-.1l-5.48-7.94h-1.88v11.64h2.1v-7.93h.1l5.48,7.93h1.88V7.36h-2.1Zm-16.52,9.87v-3.17h5.07v-1.77h-5.07v-3.16h5.46v-1.77h-7.56v11.64h7.61v-1.77h-5.51Zm-6.22-7.17c-.44-.87-1.08-1.54-1.92-2-.83-.46-1.82-.7-2.98-.7h-4.02v11.64h3.95c1.18,0,2.19-.23,3.03-.7,.84-.46,1.49-1.13,1.94-2,.45-.88,.67-1.92,.67-3.13s-.22-2.25-.67-3.11Zm-1.83,5.34c-.27,.59-.68,1.03-1.22,1.33s-1.22,.45-2.03,.45h-1.73v-7.99h1.8c.78,0,1.44,.15,1.97,.44,.54,.29,.94,.73,1.21,1.32,.28,.59,.41,1.33,.41,2.22s-.13,1.63-.41,2.23Z"></path><path d="M70.6,31.39c.08-.03,.15-.06,.22-.09,.62-.3,1.08-.73,1.39-1.27,.32-.55,.48-1.2,.48-1.94s-.16-1.4-.47-1.95c-.31-.56-.77-1-1.38-1.31-.61-.31-1.36-.47-2.25-.47h-4.36v11.64h2.1v-4.26h2.15l2.29,4.26h2.35l-2.52-4.61Zm-4.27-5.27h1.94c.52,0,.95,.08,1.29,.24,.33,.15,.58,.37,.74,.67,.16,.29,.24,.64,.24,1.06s-.08,.76-.24,1.04c-.16,.28-.41,.49-.74,.64-.33,.15-.76,.22-1.28,.22h-1.95v-3.87Z"></path><path d="M71.54,14.39c.08-.02,.15-.06,.22-.09,.62-.3,1.08-.73,1.39-1.27,.32-.55,.48-1.2,.48-1.94s-.16-1.4-.47-1.95c-.31-.56-.77-1-1.38-1.31-.61-.31-1.36-.47-2.25-.47h-4.36v11.64h2.1v-4.26h2.15l2.29,4.26h2.35l-2.52-4.61Zm-4.27-5.27h1.94c.52,0,.95,.08,1.29,.24,.33,.15,.58,.37,.74,.67,.16,.29,.24,.64,.24,1.06s-.08,.76-.24,1.04c-.16,.28-.41,.49-.74,.64-.33,.15-.76,.22-1.28,.22h-1.95v-3.87Z"></path><path d="M58.09,7.36h-2.6l-4.1,11.64h2.25l.96-2.87h4.38l.96,2.87h2.25l-4.1-11.64Zm-2.92,7.08l1.57-4.69h.1l1.57,4.69h-3.24Z"></path></svg> 